<?xml version="1.0" encoding="UTF-8"?>
<svg width="20px" height="20px" viewBox="0 0 20 20" version="1.1" xmlns="http://www.w3.org/2000/svg" xmlns:xlink="http://www.w3.org/1999/xlink">
    <!-- Generator: Sketch 47.1 (45422) - http://www.bohemiancoding.com/sketch -->
    <title>帐号</title>
    <desc>Created with Sketch.</desc>
    <defs></defs>
    <g id="Page-1" stroke="none" stroke-width="1" fill="none" fill-rule="evenodd">
        <g id="登录" transform="translate(-56.000000, -346.000000)" fill="#F8F6F5">
            <g id="帐号_export" transform="translate(56.000000, 346.000000)">
                <g id="帐号" transform="translate(1.000000, 0.000000)">
                    <path d="M9,0 L9,0 C12.3137085,-6.08718376e-16 15,2.6862915 15,6 L15,6 C15,9.3137085 12.3137085,12 9,12 C5.6862915,12 3,9.3137085 3,6 L3,6 L3,6 C3,2.6862915 5.6862915,6.08718376e-16 9,0 L9,0 Z M9,2 L9,2 C6.790861,2 5,3.790861 5,6 L5,6 L5,6 C5,8.209139 6.790861,10 9,10 C11.209139,10 13,8.209139 13,6 L13,6 C13,3.790861 11.209139,2 9,2 L9,2 Z" id="Combined-Shape"></path>
                    <path d="M18,19 C18,14.0294373 13.9705627,10 9,10 C4.02943725,10 0,14.0294373 0,19 L2,19 C2,15.1340068 5.13400675,12 9,12 C12.8659932,12 16,15.1340068 16,19 L18,19 Z" id="Combined-Shape"></path>
                    <rect id="Rectangle-4" x="0" y="18" width="2" height="2" rx="1"></rect>
                    <rect id="Rectangle-4" x="16" y="18" width="2" height="2" rx="1"></rect>
                </g>
            </g>
        </g>
    </g>
</svg>