<?xml version="1.0" encoding="UTF-8"?>
<svg width="20px" height="20px" viewBox="0 0 20 20" version="1.1" xmlns="http://www.w3.org/2000/svg" xmlns:xlink="http://www.w3.org/1999/xlink">
    <!-- Generator: Sketch 47.1 (45422) - http://www.bohemiancoding.com/sketch -->
    <title>密码</title>
    <desc>Created with Sketch.</desc>
    <defs></defs>
    <g id="Page-1" stroke="none" stroke-width="1" fill="none" fill-rule="evenodd">
        <g id="登录" transform="translate(-56.000000, -410.000000)" fill-rule="nonzero" fill="#F8F6F5">
            <g id="密码" transform="translate(56.000000, 410.000000)">
                <g id="密码_export">
                    <path d="M15.0131763,7.01367952 L15.0131763,5.11451955 C15.0131763,2.2462216 12.879957,0 9.97725042,0 C7.06290024,0 5.01123047,2.29407539 5.01123047,5.11451955 L5.01123047,7.01367952 L4.39574466,7.01367952 C3.03838643,7.01367952 2,8.13482215 2,9.51379395 L2,17.4998856 C2,18.8788574 3.10403594,20 4.46139417,20 L15.5385601,20 C16.8959183,20 18,18.8788574 18,17.4998856 L18,9.51379395 C18,8.13482215 16.9860203,7.0489502 15.6286621,7.0489502 L15.0131763,7.01367952 Z M9.98174856,2 C11.7793844,2 13,3.35779959 13,5.09139873 L13,7 L7,7 L7,5.09139873 C7,3.38747616 8.16509926,2 9.98174856,2 Z M16,16.8748919 C16,17.4954501 15.5107048,18 14.9093858,18 L5.09106024,18 C4.48972103,18 4,17.4954501 4,16.8748919 L4,10.1251081 C4,9.50452929 4.48972103,9 5.09106024,9 L14.9093858,9 C15.5107048,9 16,9.50457049 16,10.1251081 L16,16.8748919 L16,16.8748919 Z M10.9685588,13.7502457 C11.5836563,13.4091327 12,12.7531875 12,12 C12,10.8954305 11.1045695,10 10,10 C8.8954305,10 8,10.8954305 8,12 C8,12.7531875 8.4163437,13.4091327 9.03144116,13.7502457 C9.01091584,13.8300767 9,13.9137636 9,14 L9,16 C9,16.5522847 9.44771525,17 10,17 C10.5522847,17 11,16.5522847 11,16 L11,14 C11,13.9137636 10.9890842,13.8300767 10.9685588,13.7502457 Z" id="密码"></path>
                </g>
            </g>
        </g>
    </g>
</svg>