<?xml version="1.0" encoding="UTF-8"?>
<svg width="24px" height="24px" viewBox="0 0 24 24" version="1.1" xmlns="http://www.w3.org/2000/svg" xmlns:xlink="http://www.w3.org/1999/xlink">
    <!-- Generator: Sketch 47.1 (45422) - http://www.bohemiancoding.com/sketch -->
    <title>团队 (1)</title>
    <desc>Created with Sketch.</desc>
    <defs></defs>
    <g id="Page-1" stroke="none" stroke-width="1" fill="none" fill-rule="evenodd">
        <g id="私海-公司总监-团队成员" transform="translate(-315.000000, -154.000000)" fill-rule="nonzero" fill="#5CB3F3">
            <g id="团队-(1)_export" transform="translate(315.000000, 154.000000)">
                <g id="团队-(1)" transform="translate(1.000000, 2.000000)">
                    <path d="M22.8912462,15.4320891 C22.6086681,13.4567708 19.0293357,12.5678819 17.8990231,11.6789931 C17.8048396,11.5802373 17.7106285,11.283941 17.7106285,11.0864005 C17.7106285,10.5925926 17.8048396,10.3950521 17.8048396,10.3950521 C17.8048396,10.3950521 19.7828866,9.11111111 19.6886755,5.85185185 C19.594492,4.46912616 18.8409411,2 16.2977377,2 L16.1093707,2 C15.5442144,2 15.0732416,2.09875579 14.6964799,2.2962963 C15.2616362,4.17282986 15.920976,7.72838542 13.1893781,10 C12.1532766,11.6789931 15.7325814,12.6666667 15.1674251,12.3703704 C18.3699959,13.9506076 19.3119138,15.037037 19.5003085,16.320978 C19.6886755,17.3086227 19.7828866,18 19.7828866,18 C19.7828866,18 22.2318788,17.604919 22.8912462,17.1111111 C22.9854298,16.5185185 23.0796133,15.9259259 22.8912462,15.4320891 L22.8912462,15.4320891 Z" id="Shape"></path>
                    <path d="M11.1241076,11.8048741 C10.9345399,11.7073227 10.83977,11.219508 10.83977,11.1219565 C10.83977,10.5365904 11.0293099,10.3414588 11.0293099,10.3414588 C11.0293099,10.3414588 13.3988084,8.97562356 13.3988084,4.78048055 C13.3040107,3.12196223 12.356228,0 9.13374438,0 L8.94417672,0 C5.62689543,0 4.77388262,3.02438216 4.67911268,4.78048055 C4.67911268,8.78049199 7.04858345,10.3414588 7.04858345,10.3414588 C7.04858345,10.3414588 7.33292105,10.731722 7.33292105,11.3170881 C7.33292105,11.4146396 7.14338116,11.7073227 6.9538135,11.9024542 C5.62689543,12.9756064 0.793156187,14.1463387 0.414048639,16.4878032 C0.129711037,17.4634325 -1.29197698,19.1219508 3.54176227,19.7073169 C4.86868034,19.9024485 6.6694759,20 9.03894666,20 C20.1281132,20 17.9182742,17.7505234 17.6339366,16.482211 C17.1174133,14.1920055 12.4509979,12.8780549 11.1241076,11.8048741 Z" id="Shape"></path>
                </g>
            </g>
        </g>
    </g>
</svg>