<?xml version="1.0" encoding="UTF-8"?>
<svg width="24px" height="24px" viewBox="0 0 24 24" version="1.1" xmlns="http://www.w3.org/2000/svg" xmlns:xlink="http://www.w3.org/1999/xlink">
    <!-- Generator: Sketch 47.1 (45422) - http://www.bohemiancoding.com/sketch -->
    <title>未跟进</title>
    <desc>Created with Sketch.</desc>
    <defs>
        <linearGradient x1="112.469792%" y1="-141.662598%" x2="-4.40208333%" y2="247.784424%" id="linearGradient-1">
            <stop stop-color="#E7534D" offset="0%"></stop>
            <stop stop-color="#F3544F" offset="48.9895209%"></stop>
            <stop stop-color="#F3544F" offset="49.1677195%"></stop>
            <stop stop-color="#FF5652" offset="100%"></stop>
        </linearGradient>
    </defs>
    <g id="Page-1" stroke="none" stroke-width="1" fill="none" fill-rule="evenodd">
        <g id="私海-公司总监-团队成员" transform="translate(-225.000000, -155.000000)" fill="#F5A623">
            <g id="头部">
                <g id="7天未跟进_export" transform="translate(225.000000, 155.000000)">
                    <g id="未跟进" transform="translate(1.000000, 1.000000)">
                        <path d="M16,13 L16,10 C16,9.44771525 15.5522847,9 15,9 C14.4477153,9 14,9.44771525 14,10 L14,14 C14,14.2761424 14.1119288,14.5261424 14.2928932,14.7071068 C14.4738576,14.8880712 14.7238576,15 15,15 L19,15 C19.5522847,15 20,14.5522847 20,14 C20,13.4477153 19.5522847,13 19,13 L16,13 Z M16,7.07088886 C19.3922941,7.55611852 22,10.4735281 22,14 L22,14 C22,17.8659932 18.8659932,21 15,21 C14.7798888,21 14.5621504,20.9898407 14.3472281,20.9699655 C14.2344535,20.9897066 14.1184288,21 14,21 L2,21 C0.8954305,21 1.3527075e-16,20.1045695 0,19 L0,2 L0,2 C-1.3527075e-16,0.8954305 0.8954305,2.02906125e-16 2,0 L2,0 L14,0 C15.1045695,-2.02906125e-16 16,0.8954305 16,2 L16,7.07088886 Z M14,7.07088886 L14,3 C14,2.44771525 13.5522847,2 13,2 L3,2 C2.44771525,2 2,2.44771525 2,3 L2,18 C2,18.5522847 2.44771525,19 3,19 L10.1010173,19 C8.80446721,17.729483 8,15.9586882 8,14 L8,14 L8,14 C8,10.4735281 10.6077059,7.55611852 14,7.07088886 Z M4,4 L11,4 C11.5522847,4 12,4.44771525 12,5 C12,5.55228475 11.5522847,6 11,6 L4,6 C3.44771525,6 3,5.55228475 3,5 C3,4.44771525 3.44771525,4 4,4 Z M4,8 L7,8 C7.55228475,8 8,8.44771525 8,9 C8,9.55228475 7.55228475,10 7,10 L4,10 C3.44771525,10 3,9.55228475 3,9 C3,8.44771525 3.44771525,8 4,8 Z M4,12 L6,12 C6.55228475,12 7,12.4477153 7,13 C7,13.5522847 6.55228475,14 6,14 L4,14 C3.44771525,14 3,13.5522847 3,13 C3,12.4477153 3.44771525,12 4,12 Z" id="Combined-Shape"></path>
                    </g>
                </g>
            </g>
        </g>
    </g>
</svg>