<?xml version="1.0" encoding="UTF-8"?>
<svg width="18px" height="22px" viewBox="0 0 18 22" version="1.1" xmlns="http://www.w3.org/2000/svg" xmlns:xlink="http://www.w3.org/1999/xlink">
    <!-- Generator: Sketch 47.1 (45422) - http://www.bohemiancoding.com/sketch -->
    <title>私海客户</title>
    <desc>Created with Sketch.</desc>
    <defs>
        <linearGradient x1="112.469792%" y1="-141.662598%" x2="-4.40208333%" y2="247.784424%" id="linearGradient-1">
            <stop stop-color="#E7534D" offset="0%"></stop>
            <stop stop-color="#F3544F" offset="48.9895209%"></stop>
            <stop stop-color="#F3544F" offset="49.1677195%"></stop>
            <stop stop-color="#FF5652" offset="100%"></stop>
        </linearGradient>
    </defs>
    <g id="Page-1" stroke="none" stroke-width="1" fill="none" fill-rule="evenodd">
        <g id="私海-公司总监-团队成员" transform="translate(-38.000000, -156.000000)" fill="#FF5F36">
            <g id="头部">
                <g id="私海_export" transform="translate(35.000000, 155.000000)">
                    <g id="私海客户" transform="translate(3.000000, 1.000000)">
                        <path d="M15.9291111,22 C15.4438815,18.6077059 12.5264719,16 9,16 C5.47352809,16 2.55611852,18.6077059 2.07088886,22 L4.10001812,22 C4.56328845,19.7177597 6.58104209,18 9,18 C11.4189579,18 13.4367116,19.7177597 13.8999819,22 L15.9291111,22 Z" id="Combined-Shape"></path>
                        <path d="M9,0 L9,0 C13.9705627,-9.13077564e-16 18,4.02943725 18,9 L18,9 C18,13.9705627 13.9705627,18 9,18 C4.02943725,18 6.08718376e-16,13.9705627 0,9 L0,9 L0,9 C-6.08718376e-16,4.02943725 4.02943725,9.13077564e-16 9,0 L9,0 Z M8.99993828,3.98227779 C6.23848044,3.98227779 3.99987656,6.22088167 3.99987656,8.98233951 C3.99987656,11.7437973 6.23848044,13.9824012 8.99993828,13.9824012 C11.7613961,13.9824012 14,11.7437973 14,8.98233951 C14,6.22088167 11.7613961,3.98227779 8.99993828,3.98227779 Z" id="Combined-Shape"></path>
                        <path d="M9.00875293,6.01769169 C10.6607218,6.01769169 11.9999071,7.35687702 11.9999071,9.00884584 C11.9999071,10.6608147 10.6607218,12 9.00875293,12 C7.35678411,12 6.01759877,10.6608147 6.01759877,9.00884584 C6.01759877,7.35687702 7.35678411,6.01769169 9.00875293,6.01769169 Z" id="Rectangle-9"></path>
                        <path d="M12,9 L6,9 C6,8.44771525 5.55228475,8 5,8 C4.44771525,8 4,8.44771525 4,9 L3.01759877,9 L3.01759877,3 L14,3 L14,9 C14,8.44771525 13.5522847,8 13,8 C12.4477153,8 12,8.44771525 12,9 Z" id="Combined-Shape"></path>
                    </g>
                </g>
            </g>
        </g>
    </g>
</svg>