<?xml version="1.0" encoding="UTF-8"?>
<svg width="18px" height="22px" viewBox="0 0 18 22" version="1.1" xmlns="http://www.w3.org/2000/svg" xmlns:xlink="http://www.w3.org/1999/xlink">
    <!-- Generator: Sketch 47.1 (45422) - http://www.bohemiancoding.com/sketch -->
    <title>私海</title>
    <desc>Created with Sketch.</desc>
    <defs></defs>
    <g id="Page-1" stroke="none" stroke-width="1" fill="none" fill-rule="evenodd">
        <g id="公海" transform="translate(-53.000000, -623.000000)" fill="#999A9B">
            <g id="底部条" transform="translate(0.000000, 618.000000)">
                <g id="私海_export" transform="translate(53.000000, 5.000000)">
                    <g id="私海">
                        <path d="M15.9291111,22 C15.4438815,18.6077059 12.5264719,16 9,16 C5.47352809,16 2.55611852,18.6077059 2.07088886,22 L4.10001812,22 C4.56328845,19.7177597 6.58104209,18 9,18 C11.4189579,18 13.4367116,19.7177597 13.8999819,22 L15.9291111,22 Z" id="Combined-Shape"></path>
                        <path d="M13.9999695,9 C13.9904493,11.7533355 11.7555069,13.9824012 8.99993828,13.9824012 C6.24436966,13.9824012 4.00942724,11.7533355 3.99990709,9 L6.01761066,9 C6.01760304,9.00294761 6.01759877,9.00589623 6.01759877,9.00884584 C6.01759877,10.6608147 7.35678411,12 9.00875293,12 C10.6607218,12 11.9999071,10.6608147 11.9999071,9.00884584 C11.9999071,9.00589623 11.9999028,9.00294761 11.9998943,9 L13.9999717,9 Z" id="Combined-Shape"></path>
                        <rect id="Rectangle-11" x="4" y="8" width="2" height="2" rx="1"></rect>
                        <rect id="Rectangle-11" x="12" y="8" width="2" height="2" rx="1"></rect>
                        <path d="M9,0 L9,0 C13.9705627,-9.13077564e-16 18,4.02943725 18,9 L18,9 C18,13.9705627 13.9705627,18 9,18 C4.02943725,18 6.08718376e-16,13.9705627 0,9 L0,9 L0,9 C-6.08718376e-16,4.02943725 4.02943725,9.13077564e-16 9,0 L9,0 Z M9,2 L9,2 C5.13400675,2 2,5.13400675 2,9 L2,9 C2,12.8659932 5.13400675,16 9,16 C12.8659932,16 16,12.8659932 16,9 L16,9 C16,5.13400675 12.8659932,2 9,2 L9,2 Z" id="Combined-Shape"></path>
                    </g>
                </g>
            </g>
        </g>
    </g>
</svg>