<?xml version="1.0" encoding="UTF-8"?>
<svg width="26px" height="24px" viewBox="0 0 26 24" version="1.1" xmlns="http://www.w3.org/2000/svg" xmlns:xlink="http://www.w3.org/1999/xlink">
    <!-- Generator: Sketch 47.1 (45422) - http://www.bohemiancoding.com/sketch -->
    <title>公海池</title>
    <desc>Created with Sketch.</desc>
    <defs></defs>
    <g id="Page-1" stroke="none" stroke-width="1" fill="none" fill-rule="evenodd">
        <g id="公海" transform="translate(-302.000000, -623.000000)" fill-rule="nonzero" fill="#FF5652">
            <g id="底部条" transform="translate(0.000000, 618.000000)">
                <g id="公海池_export" transform="translate(302.000000, 5.000000)">
                    <g id="公海池">
                        <path d="M25.2545246,18.9063679 C25.0610045,18.9063679 24.7307356,18.9770559 24.5770578,19.0904872 C24.2810858,19.2776489 23.5990601,19.7563171 23.0080872,19.8221191 L23.0080872,3.76591905 C23.0080872,2.00773395 20.7292254,0 18.9306265,0 L6.85151194,0 C5.04722122,0 2.99249268,2.00773395 2.99249268,3.76591905 L2.99969482,19.475769 C2.38354492,19.0768433 2.18267812,18.9036385 1.82409668,18.2570801 C1.67987061,18.0021566 1.4829305,17.8213501 1.23327637,17.7146606 C0.399902344,17.5370789 0,18.2000516 0,18.6878061 C0,18.8863109 0.0626094571,19.0734725 0.187828371,19.2322764 C0.671628722,20.0830111 1.38309982,20.7919567 2.24824869,21.2797113 C3.0849387,21.7504511 4.0354641,22 5.0030648,22 C5.08844133,22 5.17069647,22.0056716 5.256073,22 C6.30905023,21.9546275 7.31961471,21.608662 8.1790718,21.0074762 C8.617338,20.7012117 8.99868651,20.3439031 9.32311734,19.941222 C9.67600701,20.3439031 10.0801226,20.6898685 10.5354641,20.9734468 C11.4176883,21.5292601 12.4422067,21.8241815 13.4951839,21.8241815 C14.5424694,21.8241815 15.5726795,21.5292601 16.4605954,20.9734468 C16.9671629,20.6558391 17.4054291,20.2645012 17.775394,19.8221191 C18.1738179,20.3042021 18.6576182,20.7125548 19.204028,21.035834 C20.1033275,21.5632895 21.1335377,21.8298531 22.1865149,21.8014952 C23.3988616,21.7674658 24.5827496,21.3364269 25.5275832,20.5877804 C25.8121716,20.4346481 26,20.1340552 26,19.810776 C25.9943082,19.3173498 25.7440167,18.9063679 25.2545246,18.9063679 Z M19.5186768,6.99621582 L21.0061646,6.99621582 L21.0061646,19.7880897 C19.7482836,19.4364527 19.130035,18.7388502 18.8397548,18.1603506 L18.5437828,17.7690126 C18.2762697,17.54215 17.9632224,17.4230472 17.6387916,17.4230472 C17.3143608,17.4230472 17.0013135,17.54215 16.7565674,17.7519979 L16.4492119,18.1376643 C15.8743433,19.2833204 14.7189142,19.9809229 13.4211909,19.9809229 C12.1291594,19.9809229 10.9737303,19.2833204 10.4045534,18.154679 L10.1085814,17.7633411 C9.8410683,17.5364785 9.52802102,17.4173756 9.20359019,17.4173756 C8.87915937,17.4173756 8.56611208,17.5364785 8.32136602,17.7463264 L8.01401051,18.1319928 C7.44483363,19.2719773 6.30078809,19.9355504 5.01444834,19.941222 L5.01444834,4.03927972 C5.01444834,3.24526064 6.30078809,2.00885951 7.12609457,2.00885951 L16.0090389,2.00885951 L16.0090389,3.59010054 C16.0147306,5.34261408 16.9579628,6.99621582 18.7451782,6.99621582 L19.5186768,6.99621582 Z M21.0061646,4.05062285 L21.0061646,5.03067801 L19.5186768,5.03067801 C18.6876785,5.03067801 18.0160498,4.38979118 18.0160498,3.60144367 L18.0160498,2.02020264 L18.8945183,2.02020264 C19.7255166,2.02020264 21.0061646,3.25093221 21.0061646,4.05062285 Z" id="Shape"></path>
                        <path d="M8,7 C8.55319149,7 9,6.54893617 9,6 C9,5.45106383 8.54893617,5 8,5 C7.45106383,5 7,5.45106383 7,6 C7,6.26808511 7.10212766,6.51914894 7.2893617,6.70638298 C7.47659574,6.89361702 7.73191489,7 8,7 Z M13.018158,14.0066833 L8.00653076,14.0066833 C7.49836379,14.0066833 7,14.4518888 7,15.0066833 C7,15.5546286 7.49201171,16.0066833 8.00653076,16.0066833 L13.018158,16.0066833 C13.5263249,16.0066833 14,15.5614779 14,15.0066833 C13.9936479,14.4587381 13.5263249,14.0066833 13.018158,14.0066833 Z M18.00354,13 C18.427002,13 19,12.5547945 19,12 C19,11.4520548 18.4118652,11 18.00354,11 L8.00181356,11 C7.48596191,10.9911499 7,11.4452055 7,12 C7,12.5410959 7.51586914,13 7.98907471,13 L18.00354,13 Z M15.0082397,8 L8.00299072,8 C7.5345457,8 7,8.44520548 7,9 C7,9.54794521 7.52869014,10 8.00299072,10 L15.0082397,10 C15.4766848,10 16,9.55479452 16,9 C16,8.45205479 15.4766848,8 15.0082397,8 Z" id="Shape"></path>
                    </g>
                </g>
            </g>
        </g>
    </g>
</svg>