<?xml version="1.0" encoding="UTF-8"?>
<svg width="22px" height="22px" viewBox="0 0 22 22" version="1.1" xmlns="http://www.w3.org/2000/svg" xmlns:xlink="http://www.w3.org/1999/xlink">
    <!-- Generator: Sketch 47.1 (45422) - http://www.bohemiancoding.com/sketch -->
    <title>发布2</title>
    <desc>Created with Sketch.</desc>
    <defs></defs>
    <g id="Page-1" stroke="none" stroke-width="1" fill="none" fill-rule="evenodd">
        <g id="公海" transform="translate(-176.000000, -623.000000)" fill="#FF5652">
            <g id="底部条" transform="translate(0.000000, 618.000000)">
                <g id="发布_export" transform="translate(176.000000, 5.000000)">
                    <g id="发布2">
                        <path d="M11,0 C17.0751322,0 22,4.92486775 22,11 C22,17.0751322 17.0751322,22 11,22 C4.92486775,22 0,17.0751322 0,11 C0,4.92486775 4.92486775,0 11,0 Z M11,2 C6.02943725,2 2,6.02943725 2,11 C2,15.9705627 6.02943725,20 11,20 C15.9705627,20 20,15.9705627 20,11 C20,6.02943725 15.9705627,2 11,2 Z" id="Combined-Shape"></path>
                        <path d="M6,10 L16,10 C16.5522847,10 17,10.4477153 17,11 C17,11.5522847 16.5522847,12 16,12 L6,12 C5.44771525,12 5,11.5522847 5,11 C5,10.4477153 5.44771525,10 6,10 Z" id="Rectangle-8"></path>
                        <path d="M12,6 L12,16 C12,16.5522847 11.5522847,17 11,17 C10.4477153,17 10,16.5522847 10,16 L10,6 C10,5.44771525 10.4477153,5 11,5 C11.5522847,5 12,5.44771525 12,6 Z" id="Rectangle-8"></path>
                    </g>
                </g>
            </g>
        </g>
    </g>
</svg>